<svg xmlns="http://www.w3.org/2000/svg" width="82" height="32" viewBox="0 0 82 32"><g><g><g><g><path fill="#f2f2f2" d="M24 28.704c0 1.82-5.373 3.294-12 3.294S0 30.523 0 28.704c0-1.82 5.373-3.294 12-3.294s12 1.475 12 3.294z"/></g><g><path fill="#13f1fc" d="M2.77 8.941C2.77 4.003 6.696 0 11.54 0c4.842 0 8.769 4.003 8.769 8.941 0 6.118-8.77 13.647-8.77 13.647S2.77 15.53 2.77 8.941zm8.77 3.294c2.293 0 4.153-1.896 4.153-4.235 0-2.34-1.86-4.235-4.154-4.235C9.245 3.765 7.385 5.66 7.385 8c0 2.34 1.86 4.235 4.154 4.235z"/></g></g></g><g><g><text dominant-baseline="text-before-edge" style="font-kerning:normal" fill="#c4c4c4" font-family="'Cabin','Cabin-SemiBold'" font-size="18" transform="translate(32 3)"><tspan style="font-kerning:normal">5.0km</tspan></text></g></g></g></svg>