<svg width="100" height="35" fill="none" xmlns="http://www.w3.org/2000/svg"><ellipse opacity=".2" cx="13" cy="31.04" rx="13" ry="3.5" fill="#C7CCE1"/><path fill-rule="evenodd" clip-rule="evenodd" d="M12.5 24.54s9.5-8 9.5-14.5a9.5 9.5 0 00-19 0c0 7 9.5 14.5 9.5 14.5zm0-11a4.5 4.5 0 100-9 4.5 4.5 0 000 9z" fill="#13F1FC"/><path d="M38.486 23.806c-1.343 0-2.533-.285-3.572-.855a6.013 6.013 0 01-2.394-2.413c-.57-1.051-.855-2.267-.855-3.648 0-1.368.291-2.571.874-3.61a6.2 6.2 0 012.451-2.432c1.051-.583 2.242-.874 3.572-.874 1.28 0 2.426.26 3.439.779l-.266 2.318a9.8 9.8 0 00-1.577-.551 5.934 5.934 0 00-1.615-.209c-1.355 0-2.4.418-3.135 1.254-.722.836-1.083 1.944-1.083 3.325 0 1.38.355 2.489 1.064 3.325.722.836 1.754 1.254 3.097 1.254.595 0 1.14-.063 1.634-.19a9.924 9.924 0 001.615-.57l.266 2.318a8.143 8.143 0 01-3.515.779zM43.68 10.24h2.356v2.356H43.68V10.24zm0 3.8h2.356v9.5H43.68v-9.5zm7.662 9.69c-.836 0-1.47-.24-1.9-.722-.431-.494-.646-1.083-.646-1.767v-5.263h-1.35l.21-1.938h1.14v-2.09l2.356-.247v2.337h2.09v1.938h-2.09v4.294c0 .507.025.861.076 1.064a.57.57 0 00.36.38c.19.05.526.076 1.008.076h.646l-.21 1.938h-1.69zm6.303-.817l-3.952-8.873h2.622l2.432 6.118 2.47-6.118h2.622l-5.947 14.098h-2.356l2.109-5.225zm18.141.627l-1.14-8.911-3.4 6.118-3.42-6.099-1.14 8.892h-2.528l1.843-13.3h1.995l3.25 6.061 3.23-6.061h1.994l1.843 13.3h-2.527zm6.406.19c-.785 0-1.444-.253-1.976-.76-.52-.52-.779-1.216-.779-2.09 0-.823.298-1.482.893-1.976a5.117 5.117 0 012.11-1.064c.81-.215 1.589-.336 2.336-.361-.025-.557-.17-.956-.437-1.197-.253-.24-.678-.361-1.273-.361-.418 0-.83.057-1.235.171a8.8 8.8 0 00-1.368.551l-.209-1.919c1.153-.557 2.305-.836 3.458-.836 1.115 0 1.963.304 2.546.912.595.608.893 1.577.893 2.907v2.565c0 .481.02.83.057 1.045.05.203.127.336.228.399.114.05.298.076.551.076h.304l-.209 1.938h-.855c-.52 0-.956-.095-1.31-.285a2.11 2.11 0 01-.818-.817c-.304.342-.722.614-1.254.817-.52.19-1.07.285-1.653.285zm.988-1.805c.24 0 .513-.057.817-.171.304-.127.57-.298.798-.513v-2.166c-.76.038-1.431.203-2.014.494-.583.291-.874.697-.874 1.216 0 .393.101.684.304.874.203.177.526.266.97.266zm11.382-8.037c.9 0 1.672.222 2.318.665a4.143 4.143 0 011.463 1.786c.33.747.494 1.57.494 2.47 0 .9-.165 1.723-.494 2.47a4.142 4.142 0 01-1.463 1.786c-.646.443-1.419.665-2.318.665-.57 0-1.058-.063-1.463-.19a3.7 3.7 0 01-1.14-.57v5.168h-2.356V14.04h1.9l.247.874c.405-.342.83-.595 1.273-.76.443-.177.956-.266 1.539-.266zm-.361 7.904c.697 0 1.241-.272 1.634-.817.393-.545.589-1.267.589-2.166 0-.9-.196-1.621-.589-2.166-.393-.545-.937-.817-1.634-.817-.785 0-1.374.266-1.767.798-.393.532-.589 1.26-.589 2.185s.196 1.653.589 2.185c.393.532.982.798 1.767.798z" fill="#727A9C"/></svg>