<svg width="454" height="486" fill="none" xmlns="http://www.w3.org/2000/svg"><path d="M283.051 161.083c6.645-7.216 11.581-15.701 14.475-24.883a63.713 63.713 0 002.3-28.339c-1.378-9.494-4.886-18.597-10.287-26.694-5.402-8.097-12.571-15-21.024-20.242 4.371-6.427 6.688-13.917 6.671-21.567 0-21.629-18.057-39.165-40.377-39.165-8.812.058-17.364 2.84-24.359 7.928-6.995 5.087-12.051 12.2-14.402 20.262-5.252-8.548-12.766-15.645-21.796-20.59C165.221 2.85 154.986.23 144.56.193c-33.205 0-60.128 26.06-60.128 58.372a56.91 56.91 0 003.682 20.157c-1.227-.092-2.438-.184-3.682-.184-26.665 0-48.274 20.97-48.274 46.844 0 1.533.097 3.173.258 4.737-10.85 4.618-20.052 12.128-26.488 21.617C3.49 161.225.097 172.284.158 183.57c0 32.19 26.843 58.249 59.935 58.249a62.58 62.58 0 0010.385-.874 64.124 64.124 0 00-.29 5.871c0 36.053 30.12 65.284 67.25 65.284 13.76-.006 27.174-4.101 38.357-11.711 8.991 7.494 20.546 11.629 32.511 11.635 27.763 0 50.245-21.828 50.245-48.776 0-1.165-.097-2.314-.178-3.449h.178c29.716 0 53.813-23.391 53.813-52.224.045-9.55-2.662-18.93-7.829-27.124-5.166-8.195-12.596-14.893-21.484-19.368z" fill="url(#paint0_linear)"/><path d="M173.647 91.751h-7.865v363.626h7.865V91.751z" fill="#DCE7FF"/><path d="M229.558 132.792l-64.49 66.099 5.771 5.072 64.49-66.099-5.771-5.072zM103.429 208.148l-4.69 5.993 66.866 47.132 4.689-5.993-66.865-47.132z" fill="#DCE7FF"/><path d="M198.406 234.254c-10.101-10.199-15.731-23.665-15.747-37.662.057-9.657 2.749-19.134 7.816-27.508 5.067-8.374 12.335-15.359 21.094-20.272-3.929-5.409-6.036-11.823-6.041-18.394 0-18.394 16.312-33.416 36.452-33.416 7.773-.072 15.366 2.225 21.66 6.555 6.294 4.329 10.958 10.462 13.306 17.495 4.968-7.417 11.839-13.514 19.969-17.721 8.13-4.207 17.252-6.385 26.512-6.33 29.992 0 54.314 22.289 54.314 49.788a46.088 46.088 0 01-3.294 17.199c1.098-.077 2.196-.153 3.327-.153 24.064 0 43.606 17.888 43.606 39.961a37.481 37.481 0 01-.226 4.047c9.591 3.688 17.814 9.995 23.627 18.121 5.813 8.126 8.956 17.706 9.029 27.528 0 27.423-24.226 49.634-54.136 49.634a58.985 58.985 0 01-9.368-.751c.162 1.655.259 3.326.259 5.012 0 30.765-27.182 55.704-60.726 55.704-12.297.007-24.318-3.461-34.53-9.963-8.275 6.447-18.656 9.959-29.362 9.933-25.065 0-45.382-18.64-45.382-41.617 0-.997.096-1.978.161-2.944h-.161c-26.826 0-48.581-19.927-48.581-44.56.063-8.296 2.572-16.41 7.241-23.423 4.67-7.014 11.314-12.647 19.181-16.263z" fill="url(#paint1_linear)"/><path d="M306.243 175.99h-9.82v309.547h9.82V175.99z" fill="#DCE7FF"/><path d="M247.598 209.068l-7.012 6.524 58.237 56.385 7.012-6.525-58.237-56.384zM359.896 273.123l-60.375 40.214 5.64 7.629 60.376-40.214-5.641-7.629z" fill="#DCE7FF"/><path d="M402.516 147.701h-55.009v5.595h55.009v-5.595z" fill="#70DDFF"/><path d="M398.139 203.742c10.169 0 18.412-7.823 18.412-17.474s-8.243-17.475-18.412-17.475c-10.168 0-18.411 7.824-18.411 17.475 0 9.651 8.243 17.474 18.411 17.474z" fill="#FFEB3B"/><path d="M353.402 93.622h-5.895v277.847h5.895V93.622z" fill="#70DDFF"/><path d="M350.011 96.933c8.099 0 14.665-6.232 14.665-13.919s-6.566-13.918-14.665-13.918-14.665 6.231-14.665 13.918c0 7.687 6.566 13.919 14.665 13.919z" fill="#4F79A4"/><path d="M426.096 168.211h-55.009v5.595h55.009v-5.595zM349.672 451.668c-10.321 0-18.751 2.346-18.751-7.449v-71.202c.013-4.718 1.992-9.239 5.505-12.576 3.513-3.337 8.275-5.22 13.246-5.236 4.97.016 9.732 1.899 13.245 5.236 3.513 3.337 5.493 7.858 5.505 12.576v71.202c0 9.795-8.43 7.449-18.75 7.449z" fill="#70DDFF"/><defs><linearGradient id="paint0_linear" x1="73.5" y1="34" x2="177.5" y2="304" gradientUnits="userSpaceOnUse"><stop stop-color="#0470DC"/><stop offset="1" stop-color="#70DDFF"/></linearGradient><linearGradient id="paint1_linear" x1="269" y1="173.029" x2="386" y2="444.029" gradientUnits="userSpaceOnUse"><stop stop-color="#0470DC"/><stop offset="1" stop-color="#6BD7FD"/><stop offset="1" stop-color="#70DDFF"/></linearGradient></defs></svg>