<svg width="54" height="55" fill="none" xmlns="http://www.w3.org/2000/svg"><circle cx="27" cy="27.54" r="26.5" stroke="#F2F3F3"/><path d="M28.555 27.524c.054.31.082.602.082.875 0 1.003-.21 1.896-.63 2.68a4.573 4.573 0 01-1.777 1.805c-.765.437-1.64.656-2.625.656a5.213 5.213 0 01-2.652-.71 5.35 5.35 0 01-1.914-1.915 5.222 5.222 0 01-.684-2.625c0-.948.228-1.823.684-2.625a5.35 5.35 0 011.914-1.914 5.213 5.213 0 012.652-.711c1.368 0 2.534.456 3.5 1.367l-1.421 1.367c-.547-.528-1.24-.793-2.079-.793-.583 0-1.13.146-1.64.438a3.24 3.24 0 00-1.176 1.203 3.304 3.304 0 00-.437 1.668c0 .602.145 1.158.437 1.668.292.51.684.912 1.176 1.203.51.292 1.057.438 1.64.438.639 0 1.194-.137 1.668-.41.383-.22.693-.53.93-.93.2-.31.328-.61.383-.903h-2.98v-1.832h4.949zm5.058.192v-1.531h-1.531v1.53h-1.504v1.532h1.504v1.531h1.531v-1.53h1.532v-1.532h-1.532z" fill="#BDD3DF"/></svg>