<svg width="54" height="55" fill="none" xmlns="http://www.w3.org/2000/svg"><circle cx="27" cy="27.54" r="26.5" stroke="#F2F3F3"/><path d="M32.55 25.446c.019.073.028.192.028.356 0 1.312-.319 2.58-.957 3.8-.656 1.295-1.577 2.325-2.762 3.09-1.294.857-2.78 1.285-4.457 1.285A7.966 7.966 0 0120 32.693c.2.019.428.028.684.028 1.33 0 2.524-.41 3.582-1.23a2.773 2.773 0 01-1.696-.548 2.966 2.966 0 01-.984-1.422c.182.019.355.028.52.028.255 0 .51-.027.765-.082a2.893 2.893 0 01-1.64-1.012 2.753 2.753 0 01-.657-1.805v-.054c.401.237.83.364 1.285.383a3.186 3.186 0 01-.93-1.04 2.732 2.732 0 01-.355-1.367c0-.51.137-.993.41-1.449a7.961 7.961 0 005.907 3.008 3.992 3.992 0 01-.055-.656c0-.51.128-.985.383-1.422a2.782 2.782 0 011.039-1.067 2.772 2.772 0 011.422-.383c.419 0 .802.083 1.148.247.365.164.684.382.957.656a5.842 5.842 0 001.832-.684 2.85 2.85 0 01-1.258 1.586A6.167 6.167 0 0034 23.942a6.312 6.312 0 01-1.45 1.504z" fill="#BDD3DF"/></svg>