<svg xmlns="http://www.w3.org/2000/svg" width="88" height="54" viewBox="0 0 88 54"><g><g><path fill="#13f1fc" d="M0 27C0 12.088 12.088 0 27 0h34c14.912 0 27 12.088 27 27S75.912 54 61 54H27C12.088 54 0 41.912 0 27z"/></g><g><path fill="#fff" d="M47.593 23.296a8.296 8.296 0 1 1-16.593 0 8.296 8.296 0 0 1 16.593 0zm9.335 19.155l2.122-2.122-10.522-10.521a11.244 11.244 0 0 0 2.064-6.512C50.593 17.057 45.535 12 39.297 12 33.057 12 28 17.057 28 23.296c0 6.239 5.058 11.296 11.296 11.296 2.732 0 5.237-.97 7.19-2.583z"/></g></g></svg>